<?xml version="1.0" encoding="utf-8"?>
<!-- Generator: Adobe Illustrator 26.1.0, SVG Export Plug-In . SVG Version: 6.00 Build 0)  -->
<svg version="1.1" id="a" xmlns="http://www.w3.org/2000/svg" xmlns:xlink="http://www.w3.org/1999/xlink" x="0px" y="0px"
	 viewBox="0 0 500 85.3" style="enable-background:new 0 0 500 85.3;" xml:space="preserve">
<g transform="translate(0.000000,2501.000000) scale(0.100000,-0.100000)">
	<path d="M154.7,0.1c-4.6,0.5-9.8,2.1-14.5,4.4c-23.4,11.7-30.8,41.7-15.5,63c6.6,9.2,16.4,15.3,28.1,17.3c2.8,0.5,11,0.4,14-0.1
		c8.2-1.5,16-5.3,22.1-11l1.7-1.6l-9.7-9.7c-5.4-5.3-9.8-9.7-10-9.7c-0.1,0-0.6,0.3-1,0.7c-1.2,1.3-4,3-5.9,3.6
		c-1.5,0.5-2.2,0.6-4.8,0.6s-3.2-0.1-4.6-0.7c-4.7-1.8-8.2-5.3-9.6-9.9c-0.7-2.2-0.7-6.8-0.1-8.8c1.4-4.2,4.1-7.4,7.9-9.2
		c2.8-1.3,4.5-1.7,7.6-1.5c3.6,0.2,6.8,1.6,9.4,4.1c0.7,0.7,1.2,1.2,1.3,1.2s4.4-4.4,9.8-9.9l9.7-9.9l-1.9-1.8
		c-6.4-5.9-14.6-9.8-23.1-11C163.2,0,157-0.1,154.7,0.1L154.7,0.1z"/>
	<path d="M353.7,0.2c-6.9,1-13.1,3.4-18.9,7.3c-3.6,2.5-8.7,7.5-11.1,11.2c-2,3-4.1,7.2-5.1,10.2c-3.5,10.4-2.8,22,1.8,31.9
		c7,15,22,24.6,38.7,24.6c8.8,0,16.7-2.4,24.3-7.5c3.6-2.4,8.7-7.5,11.1-11.1c4.1-6.2,6.4-12.4,7.2-19.8c0.3-3,0.2-8.6-0.4-11.8
		c-1.8-10.4-7.5-19.9-16-26.4c-5.2-4-11-6.7-17.6-8.1C365.3,0.2,364,0.1,360,0C357.4,0,354.6,0.1,353.7,0.2L353.7,0.2z M362.7,27.9
		c4.2,1.1,8.1,4.2,9.9,8c1.2,2.5,1.6,4.1,1.6,6.7c0,8.3-6.8,15.1-15.1,15.1c-5.5,0-10.7-3.2-13.2-8c-1.5-2.8-1.8-4.5-1.7-7.8
		c0.1-2.2,0.2-3.1,0.8-4.4c1.9-4.9,5.8-8.4,10.7-9.6C357.5,27.4,360.9,27.5,362.7,27.9L362.7,27.9z"/>
	<path d="M0,2.5v1.4l34.2,10.9c18.8,6,34.4,10.9,34.5,11c0.2,0.1,0.3-2.5,0.3-12.2V1.2H0V2.5z"/>
	<path d="M79.6,42.6v41.5h27.8v-83H79.6V42.6z"/>
	<path d="M194.2,12.2v11h24.7v60.9h27.8V23.2h24.7v-22h-77.2V12.2z"/>
	<path d="M279.4,42.6v41.5h27.8v-83h-27.8V42.6z"/>
	<path d="M410.8,42.6v41.5h27.8V63.4c0-19.5,0-20.7,0.4-20.7c0.2,0,7.8,9.4,16.7,20.8L472,84.1h28v-83h-28.1v21.6
		c0,12.6-0.1,21.6-0.2,21.6s-7.6-9.7-16.7-21.6L438.5,1.2h-27.8L410.8,42.6L410.8,42.6z"/>
	<path d="M34.4,46L0,57.9v26.3h28.8V58.7h40.3V46.4c0-6.8-0.1-12.3-0.2-12.3C68.8,34,53.2,39.4,34.4,46L34.4,46z"/>
</g>
<g transform="translate(0.000000,2501.000000) scale(0.100000,-0.100000)">
	<path d="M1542.1,24998.8c-45.8-4.7-96.7-20.3-142.8-43.2c-230.6-115.1-303-409.8-152.7-620.4c64.7-90.6,161.7-150.4,276.6-170.6
		c27.2-4.7,108.5-4,138.1,1.4c81.2,14.7,157.1,52.6,217.1,108.3l16.5,15.5l-95.5,95.5c-52.6,52.6-96.7,95.8-98.2,95.8
		c-1.2,0-5.4-3.3-9.4-7.3c-11.8-12.5-39.4-29.2-57.9-35.4c-14.9-4.7-21.9-5.7-46.9-5.7c-25.7,0.2-31.4,1-45.3,6.4
		c-46.4,17.7-80.5,52.6-94.7,97.4c-7.1,22.1-7.3,66.5-0.7,86.1c14.2,41.7,40.5,72.9,77.4,90.6c27.2,13,44.6,16.5,74.6,15.1
		c35.4-1.9,67.2-15.5,92.7-40.2c6.6-6.4,12-11.3,12.5-11.3c0.5,0,43.7,43.7,96,97l95.4,97.2l-18.9,17.4
		c-62.5,57.9-143.3,96-227.7,108C1625.8,24999.9,1564.4,25001.1,1542.1,24998.8z"/>
	<path d="M3500.7,24998.1c-67.5-9.4-129.3-33.1-186.2-71.5c-35.9-24.1-85.2-73.9-109.5-110.2c-19.8-30-40.5-71.2-50.3-100.3
		c-33.9-102.6-27.7-216.9,17.9-313.8c69.4-148,216.6-241.7,380.4-241.9c86.8,0,164.4,23.8,239.3,73.4
		c35.6,23.8,85.4,73.6,109.2,109.2c40.5,61.1,63,122.2,71.2,194.9c3.3,30,1.7,84.2-4,115.6c-17.7,101.9-74.3,195.6-157,259.6
		c-51.5,39.7-107.8,65.6-173,79.3c-23.8,4.9-36.6,6.1-75.8,6.9C3537.2,24999.7,3509.1,24999.3,3500.7,24998.1z M3588.9,24725.3
		c41.7-10.6,79.8-41.3,97.7-79c11.8-25,15.5-40.5,15.5-65.8c-0.2-81.9-66.8-148.4-148.4-148.7c-53.8,0-105.5,31.4-130.3,79
		c-14.4,27.8-17.9,44.1-16.7,76.7c1,22.1,2.4,30.2,7.6,43.7c18.4,47.9,57.4,82.6,105.3,94.4
		C3537.5,24730,3571.2,24729.7,3588.9,24725.3z"/>
	<path d="M20,24975.2v-13.7l336.9-107.2c185.2-58.7,338.1-107.7,339.8-108c2.2-1,2.9,24.1,2.9,120.5v121.7H359.8H20V24975.2z"/>
	<path d="M803.5,24580.5v-408.3h136.9h136.9v408.3v408.3H940.4H803.5V24580.5z"/>
	<path d="M1931.4,24880.1v-108.5h121.5h121.5v-299.7v-299.7h136.9h136.9v299.7v299.7h121.5h121.5v108.5v108.5h-379.9h-379.9V24880.1
		z"/>
	<path d="M2769.2,24580.5v-408.3H2906h136.9v408.3v408.3H2906h-136.9V24580.5z"/>
	<path d="M4062.3,24580.5v-408.3h136.9H4336v204.4c0,192.3,0.2,204.1,4,203.4c2.4-0.5,76.3-92.3,164.2-204.4l160.2-203.4h137.8H4940
		v408.3v408.3h-138.1h-138.1v-212.4c0-124.1-1-212.4-2.2-212.4c-1.2,0-75.1,95.5-164.2,212.4l-162.4,212.4h-136.4h-136.6
		L4062.3,24580.5L4062.3,24580.5z"/>
	<path d="M358.1,24547.9L20,24430.6v-129.1v-129.3h141.6h141.6v125.1v125.1h198.2h198.2v121.5c0,66.8-0.7,121.5-1.7,121.3
		C696.8,24665.1,543.9,24612.2,358.1,24547.9z"/>
</g>
</svg>
